#tb 0: 2/25
#media_type 0: video
#codec_id 0: rawvideo
#dimensions 0: 352x288
#sar 0: 0/1
0,          0,          0,        1,   202752, 0x789424b6
0,          1,          1,        1,   202752, 0x7a1f47a9
0,          2,          2,        1,   202752, 0xa55a9aba
0,          3,          3,        1,   202752, 0x71aa394c
0,          4,          4,        1,   202752, 0xa5d9d0a7
0,          5,          5,        1,   202752, 0x192d92ff
0,          6,          6,        1,   202752, 0xa66d9bdd
0,          7,          7,        1,   202752, 0x29a256bf
0,          8,          8,        1,   202752, 0x75910eed
0,          9,          9,        1,   202752, 0x99de19d7
0,         10,         10,        1,   202752, 0x3a5a16e4
0,         11,         11,        1,   202752, 0x262ce461
0,         12,         12,        1,   202752, 0x08da338f
0,         13,         13,        1,   202752, 0xfb515dbe
0,         14,         14,        1,   202752, 0x984a8697
0,         15,         15,        1,   202752, 0xbbd58420
0,         16,         16,        1,   202752, 0xdd7e560b
0,         17,         17,        1,   202752, 0x49b94d23
0,         18,         18,        1,   202752, 0xb679bec7
0,         19,         19,        1,   202752, 0xe6cffad0
0,         20,         20,        1,   202752, 0x29a65535
0,         21,         21,        1,   202752, 0x32851117
0,         22,         22,        1,   202752, 0x35feb7d1
0,         23,         23,        1,   202752, 0x96ad33b0
0,         24,         24,        1,   202752, 0x7ec60b7d
